<svg xmlns="http://www.w3.org/2000/svg" xmlns:xlink="http://www.w3.org/1999/xlink" width="1677" height="1677" viewBox="0 0 1677 1677">
  <defs>
    <style>
      .cls-1 {
        fill: url(#linear-gradient);
      }

      .cls-2, .cls-3, .cls-4, .cls-5 {
        fill-rule: evenodd;
      }

      .cls-2 {
        fill: url(#linear-gradient-2);
      }

      .cls-3 {
        opacity: 0.13;
        mix-blend-mode: screen;
        fill: url(#linear-gradient-3);
      }

      .cls-4 {
        fill: url(#linear-gradient-4);
      }

      .cls-5 {
        fill: #fff;
      }
    </style>
    <linearGradient id="linear-gradient" x1="735.71" y1="1676.22" x2="941.475" y2="0.406" gradientUnits="userSpaceOnUse">
      <stop offset="0" stop-color="#f08120"/>
      <stop offset="0.553" stop-color="#f08120"/>
      <stop offset="1" stop-color="#ffdc01"/>
    </linearGradient>
    <linearGradient id="linear-gradient-2" x1="1018.58" y1="1674" x2="1018.58" y2="109" gradientUnits="userSpaceOnUse">
      <stop offset="0" stop-color="#312783"/>
      <stop offset="0.238" stop-color="#312783"/>
      <stop offset="1" stop-color="#008cd2"/>
    </linearGradient>
    <linearGradient id="linear-gradient-3" x1="857.484" y1="1670.94" x2="857.484" y2="163.344" gradientUnits="userSpaceOnUse">
      <stop offset="0" stop-color="#312783"/>
      <stop offset="0.348" stop-color="#312783"/>
      <stop offset="1" stop-color="#008cd2"/>
    </linearGradient>
    <linearGradient id="linear-gradient-4" x1="657.655" y1="1676.19" x2="657.655" y2="676.844" gradientUnits="userSpaceOnUse">
      <stop offset="0" stop-color="#792182"/>
      <stop offset="0.175" stop-color="#792182"/>
      <stop offset="0.986" stop-color="#a01780"/>
      <stop offset="1" stop-color="#a01780"/>
    </linearGradient>
  </defs>
  <circle id="Elipse_1_copiar" data-name="Elipse 1 copiar" class="cls-1" cx="838.592" cy="838.313" r="837.717"/>
  <path id="Forma_5" data-name="Forma 5" class="cls-2" d="M891,1674S347.16,1037.65,361.25,647.086C377.18,205.534,1251,109,1251,109s15.29,7.906,40.92,25.14c26.9,18.091,68.13,45.57,112.08,85.86,22.12,20.28,43.74,43.47,68,70,14.82,16.209,28.58,35.075,43,55,24.17,33.391,47.37,71.446,68,109,36.4,66.257,80.22,182.764,91,322,6.89,88.987-2.4,190.921-27,283-11.62,43.51-27.55,83.55-46,126-28.5,65.58-70.82,131.24-120,191-12.62,15.34-28,30.59-41,45-27.52,30.49-64.75,61.4-95,85-26.22,20.45-54.67,38.45-81,54a803.265,803.265,0,0,1-138,65C996.357,1671.76,891,1674,891,1674Z"/>
  <path id="Forma_5_copiar_2" data-name="Forma 5 copiar 2" class="cls-3" d="M796.325,226.858s136.911-56.805,173.656-63.5c53.459,0.81,183.649,54.5,272.619,100.855,58.92,30.7,105.9,123.7,112.04,229.725C1378.84,911.8,1015,1655,1015,1655s-24.793,5.96-60,11c-18.834,2.7-47.471,8.48-73,2-5.487-1.85-127.428-131.83-233.19-299.99C538.069,1191.94,423.632,981.549,378.056,796.5a685.937,685.937,0,0,1-18.673-128.87c-1.168-22.2,3.978-40.213,7.469-57.9,6.487-32.863,15.957-61.039,29.876-87.781,26.2-50.337,59.735-96.714,110.17-134.474C632.811,293.209,796.325,226.858,796.325,226.858Z"/>
  <path id="Forma_5_copiar" data-name="Forma 5 copiar" class="cls-4" d="M4,902s180.423-92.114,426.339-157.794c231.915-61.94,519.475-98.876,696.6-31.094C1529.73,867.254,1147,1617,1147,1617s-198.062,83.79-417,52c-51.774-7.52-102.864-17.15-152-34-139.231-47.75-259.317-127.4-308-179-21.646-22.94-43.368-44.71-62-66a838.138,838.138,0,0,1-65-85c-45.827-67.89-78.019-139.29-100-205C6.313,990.33,4,902,4,902Z"/>
  <path id="L" class="cls-5" d="M503.423,1265.44c-44.8,0-74.294,42.33-74.294,84.43s29.493,84.2,74.294,84.2c23.189,0,43.676-11.93,56.959-30.39l-28.592-16.89c-7.429,8.78-17.56,14.18-28.367,14.18-26.34,0-41.65-27.46-41.65-51.1s15.31-51.11,41.65-51.11c11.482,0,21.838,5.85,29.043,14.63l28.141-17.33C547.1,1277.37,526.837,1265.44,503.423,1265.44Zm176.505,0.23v103.11c0,43.23-65.739,43.23-65.739,0V1265.67h-32.87v103.11c0,86.23,131.479,86.23,131.479,0V1265.67h-32.87Zm109.189,32.87c31.744,0,33.32,61.91,0,61.91H765.929v-61.91h23.188Zm17.111,92.3c58.534-17.56,51.78-125.17-17.111-125.17H733.284v168.17h32.645v-39.17l34.22,38.72h43.676Zm61.461,24.99a72.555,72.555,0,0,0,65.063,15.54c26.566-6.53,43-26.34,42.1-47.28-1.8-30.4-33.771-45.03-61.012-56.51-10.131-4.5-15.309-11.26-14.183-17.11,2.251-10.58,18.236-13.06,27.916-12.38a40.9,40.9,0,0,1,22.514,9.45L971.926,1283a72.136,72.136,0,0,0-30.168-15.76c-26.566-6.3-59.886,2.03-71.593,28.59-7.654,17.56-2.251,37.83,12.382,49.98,9.456,7.88,27.917,15.31,42.326,23.42,21.162,11.93,19.586,35.35-8.33,33.32-9.681-.45-19.137-4.5-27.016-11.03Zm205.551-150.84c-46.38,0-78.351,41.2-78.351,84.43,0,43,31.971,84.65,78.351,84.65s78.34-41.65,78.34-84.65C1151.58,1306.19,1119.61,1264.99,1073.24,1264.99Zm0,31.97c28.36,0,45.7,27.02,45.7,52.46s-17.34,52.45-45.7,52.45c-28.15,0-45.26-27.01-45.26-52.45S1045.09,1296.96,1073.24,1296.96Zm102.66,118.87a72.548,72.548,0,0,0,65.06,15.54c26.57-6.53,43-26.34,42.1-47.28-1.8-30.4-33.77-45.03-61.01-56.51-10.13-4.5-15.31-11.26-14.18-17.11,2.25-10.58,18.23-13.06,27.91-12.38a40.907,40.907,0,0,1,22.52,9.45l21.83-24.54a72.112,72.112,0,0,0-30.16-15.76c-26.57-6.3-59.89,2.03-71.6,28.59-7.65,17.56-2.25,37.83,12.38,49.98,9.46,7.88,27.92,15.31,42.33,23.42,21.16,11.93,19.59,35.35-8.33,33.32-9.68-.45-19.14-4.5-27.02-11.03ZM1135.26,368.281V323.457h158.72V360.81l-52.29,56.031s29.47-.353,48.55,22.412c10.08,12.027,20.46,47.445,11.2,67.237-14.82,31.695-42.55,42.195-67.22,46.692-28.67,5.226-59.05-.043-80.29-7.471-18.51-6.472-29.88-14.941-29.88-14.941l20.54-41.089s16.27,10,33.61,14.941c20.35,5.8,43.63,5.84,65.36-7.471,5.44-3.331,8.5-17.664,5.6-24.28-6.66-15.227-18.67-16.809-18.67-16.809h-44.82V416.841l42.95-48.56h-93.36Zm-102.7,216.756-209.366,248.3V408.144L703.917,407.5l-0.385,750.808H827.157l-7.469-128.87,61.62-72.839L1038.16,1158.31h151.25v-3.73L954.132,863.217,1176.34,586.8v-1.763H1032.56ZM371.543,377.619L373.41,893.1s-0.463,115.17,67.222,179.3c102.9,97.49,220.338,85.91,220.338,85.91V1049.99s0.232-9.14,0-9.34c-0.885-.78-9.336,0-9.336,0s-17.478.6-28.009,0c-18.636-1.07-40.623-8.37-87.762-42.96-63.687-46.735-56.018-101.171-56.018-108.325s-1.867-420.229-1.867-420.229a141.384,141.384,0,0,0-16.806-24.28c-13.431-15.323-32.885-31.926-50.416-46.692C390.6,381.187,371.543,377.619,371.543,377.619Z"/>
</svg>
