<svg xmlns="http://www.w3.org/2000/svg" width="1823" height="1823" viewBox="0 0 1823 1823">
  <defs>
    <style>
      .cls-1 {
        fill: #fff;
        fill-rule: evenodd;
      }
    </style>
  </defs>
  <path id="L" class="cls-1" d="M911.735-.47c503.535,0,911.735,408.2,911.735,911.735S1415.27,1823,911.735,1823,0,1414.8,0,911.265,408.2-.47,911.735-0.47ZM911.5,73C1374.04,73,1749,448.185,1749,911s-374.96,838-837.5,838S74,1373.81,74,911,448.962,73,911.5,73ZM576.423,1338.44c-44.8,0-74.294,42.33-74.294,84.43s29.492,84.2,74.294,84.2c23.189,0,43.676-11.93,56.959-30.39l-28.592-16.89c-7.429,8.78-17.56,14.18-28.367,14.18-26.341,0-41.65-27.46-41.65-51.1s15.309-51.11,41.65-51.11c11.482,0,21.838,5.85,29.043,14.63l28.141-17.33C620.1,1350.37,599.837,1338.44,576.423,1338.44Zm176.505,0.23v103.11c0,43.23-65.739,43.23-65.739,0V1338.67h-32.87v103.11c0,86.23,131.478,86.23,131.478,0V1338.67H752.928Zm109.189,32.87c31.744,0,33.32,61.91,0,61.91H838.928v-61.91h23.189Zm17.11,92.3c58.535-17.56,51.781-125.17-17.11-125.17H806.284v168.17h32.644v-39.17l34.221,38.72h43.676Zm61.462,24.99a72.552,72.552,0,0,0,65.061,15.54c26.57-6.53,43-26.34,42.1-47.28-1.8-30.4-33.77-45.03-61.009-56.51-10.131-4.5-15.309-11.26-14.183-17.11,2.251-10.58,18.235-13.06,27.912-12.38a40.907,40.907,0,0,1,22.52,9.45l21.84-24.54a72.149,72.149,0,0,0-30.17-15.76c-26.568-6.3-59.888,2.03-71.6,28.59-7.655,17.56-2.251,37.83,12.382,49.98,9.456,7.88,27.917,15.31,42.326,23.42,21.167,11.93,19.587,35.35-8.33,33.32-9.681-.45-19.137-4.5-27.016-11.03Zm205.551-150.84c-46.38,0-78.35,41.2-78.35,84.43,0,43,31.97,84.65,78.35,84.65s78.34-41.65,78.34-84.65C1224.58,1379.19,1192.61,1337.99,1146.24,1337.99Zm0,31.97c28.36,0,45.7,27.02,45.7,52.46s-17.34,52.45-45.7,52.45c-28.15,0-45.26-27.01-45.26-52.45S1118.09,1369.96,1146.24,1369.96Zm102.66,118.87a72.548,72.548,0,0,0,65.06,15.54c26.57-6.53,43-26.34,42.1-47.28-1.8-30.4-33.77-45.03-61.01-56.51-10.13-4.5-15.31-11.26-14.18-17.11,2.25-10.58,18.23-13.06,27.91-12.38a40.907,40.907,0,0,1,22.52,9.45l21.83-24.54a72.112,72.112,0,0,0-30.16-15.76c-26.57-6.3-59.89,2.03-71.6,28.59-7.65,17.56-2.25,37.83,12.38,49.98,9.46,7.88,27.92,15.31,42.33,23.42,21.16,11.93,19.59,35.35-8.33,33.32-9.68-.45-19.14-4.5-27.02-11.03ZM1208.26,441.281V396.457h158.72V433.81l-52.29,56.031s29.47-.353,48.55,22.412c10.08,12.027,20.46,47.445,11.2,67.237-14.82,31.694-42.55,42.195-67.22,46.692-28.67,5.226-59.05-.043-80.29-7.471-18.51-6.472-29.88-14.941-29.88-14.941l20.54-41.09s16.27,10,33.61,14.942c20.35,5.8,43.63,5.84,65.36-7.471,5.44-3.331,8.5-17.664,5.6-24.28-6.66-15.227-18.67-16.809-18.67-16.809h-44.82V489.841l42.95-48.56h-93.36Zm-102.7,216.756-209.367,248.3V481.144L776.917,480.5l-0.385,750.808H900.157l-7.469-128.87,61.62-72.84,156.852,201.71h151.25v-3.73L1027.13,936.217,1249.34,659.8v-1.763H1105.56ZM444.543,450.619L446.41,966.1s-0.463,115.17,67.222,179.3c102.9,97.49,220.338,85.91,220.338,85.91V1122.99s0.232-9.14,0-9.34c-0.885-.78-9.336,0-9.336,0s-17.478.6-28.009,0c-18.636-1.07-40.623-8.37-87.762-42.96-63.687-46.74-56.018-101.171-56.018-108.325s-1.867-420.229-1.867-420.229a141.384,141.384,0,0,0-16.806-24.28c-13.431-15.323-32.885-31.926-50.416-46.692C463.6,454.187,444.543,450.619,444.543,450.619Z"/>
</svg>
